<?xml version="1.0" encoding="UTF-8"?>
<svg xmlns="http://www.w3.org/2000/svg" xmlns:xlink="http://www.w3.org/1999/xlink" width="32pt" height="68pt" viewBox="0 0 32 68" version="1.1">
<g id="surface1">
<path style=" stroke:none;fill-rule:evenodd;fill:rgb(87.843137%,11.764706%,14.117647%);fill-opacity:1;" d="M 6.988281 67.148438 C 6.988281 67.621094 7.371094 68 7.84375 68 L 20.097656 68 C 20.570312 68 20.953125 67.621094 20.953125 67.148438 L 20.953125 33.730469 L 29.835938 33.730469 C 30.285156 33.734375 30.65625 33.390625 30.691406 32.945312 L 31.542969 22.882812 C 31.566406 22.644531 31.484375 22.40625 31.324219 22.230469 C 31.160156 22.050781 30.929688 21.953125 30.691406 21.953125 L 20.964844 21.953125 L 20.964844 14.8125 C 20.964844 13.136719 22.324219 11.777344 24.007812 11.777344 L 30.855469 11.777344 C 31.324219 11.777344 31.707031 11.398438 31.707031 10.929688 L 31.707031 0.851562 C 31.707031 0.378906 31.324219 0 30.855469 0 L 19.285156 0 C 12.496094 0 6.992188 5.484375 6.992188 12.246094 L 6.992188 21.953125 L 0.851562 21.953125 C 0.382812 21.953125 0 22.332031 0 22.804688 L 0 32.871094 C 0 33.339844 0.382812 33.722656 0.851562 33.722656 L 6.980469 33.722656 Z M 6.988281 67.148438 "/>
</g>
</svg>
