<svg xmlns="http://www.w3.org/2000/svg" width="33.082" height="30.984" viewBox="0 0 33.082 30.984">
  <path id="whatsapp" d="M17.954,2C9.18,2,2.037,8.676,2.034,16.884A14.122,14.122,0,0,0,4.16,24.326L2,31.814l8.338-1.843a16.78,16.78,0,0,0,7.607,1.811h.006c8.773,0,15.912-6.678,15.917-14.884A14.324,14.324,0,0,0,29.212,6.364,16.383,16.383,0,0,0,17.954,2Zm0,2.981a13.126,13.126,0,0,1,9.007,3.491A11.446,11.446,0,0,1,30.681,16.9c0,6.565-5.712,11.905-12.733,11.905a13.447,13.447,0,0,1-6.082-1.447l-1.074-.547-1.186.262-3.137.693L7.235,25.1l.345-1.194-.66-1.071a11.31,11.31,0,0,1-1.7-5.951C5.225,10.322,10.935,4.981,17.951,4.981Zm-5.63,5.031a1.508,1.508,0,0,0-1.061.466,4.055,4.055,0,0,0-1.394,3.1,7.008,7.008,0,0,0,1.625,3.849c.2.247,2.752,4.123,6.794,5.613,3.359,1.239,4.041.994,4.771.932a4.02,4.02,0,0,0,2.686-1.767,2.938,2.938,0,0,0,.233-1.77c-.1-.155-.364-.247-.763-.434S22.86,18.918,22.5,18.794s-.632-.186-.9.186-1.025,1.208-1.257,1.456-.464.282-.862.1a11.133,11.133,0,0,1-3.2-1.849,11.354,11.354,0,0,1-2.213-2.574c-.231-.371-.022-.575.177-.76.178-.167.4-.435.594-.652a2.561,2.561,0,0,0,.4-.62.65.65,0,0,0-.034-.652c-.1-.186-.873-2.024-1.226-2.76-.3-.619-.613-.633-.9-.643C12.849,10.012,12.585,10.013,12.321,10.013Z" transform="translate(-1.286 -1.5)" fill="#e01e24" stroke="#e01e24" stroke-width="1"/>
</svg>
