<?xml version="1.0" encoding="UTF-8"?>
<svg xmlns="http://www.w3.org/2000/svg" xmlns:xlink="http://www.w3.org/1999/xlink" width="98pt" height="41pt" viewBox="0 0 98 41" version="1.1">
<g id="surface1">
<path style=" stroke:none;fill-rule:nonzero;fill:rgb(0%,0%,0%);fill-opacity:1;" d="M 17.164062 2.121094 C 16.566406 3.535156 16.109375 4.03125 15.128906 4.453125 C 13.511719 5.125 12.707031 5.902344 11.898438 7.492188 C 10.53125 10.214844 10.601562 13.820312 12.144531 16.117188 C 12.882812 17.175781 12.917969 17.355469 12.390625 17.175781 C 7.335938 15.199219 2.246094 17.496094 0.703125 22.410156 C -0.0351562 24.707031 0.386719 28.839844 1.613281 31.066406 C 3.054688 33.789062 4.703125 34.78125 7.898438 34.921875 C 11.96875 35.132812 14.671875 33.472656 15.832031 30.078125 C 16.320312 28.699219 16.039062 28.3125 14.320312 28.027344 C 13.128906 27.851562 13.058594 27.921875 12.8125 28.910156 C 12.460938 30.609375 10.460938 32.164062 8.667969 32.164062 C 5.757812 32.164062 3.964844 30.21875 3.617188 26.648438 C 3.335938 24.035156 4.035156 21.808594 5.511719 20.5 C 6.527344 19.582031 6.984375 19.441406 8.632812 19.441406 C 10.390625 19.441406 10.707031 19.582031 11.617188 20.535156 C 12.179688 21.136719 12.636719 21.84375 12.636719 22.089844 C 12.636719 22.832031 13.128906 22.972656 14.496094 22.585938 C 16.074219 22.160156 16.144531 21.488281 14.917969 19.652344 C 14.460938 18.945312 14.109375 18.378906 14.179688 18.378906 C 14.25 18.378906 14.882812 18.625 15.550781 18.910156 C 18.566406 20.183594 22.464844 18.839844 24.148438 15.976562 C 24.957031 14.5625 25.097656 13.925781 25.097656 11.664062 C 25.0625 7.597656 23.515625 5.160156 20.324219 4.171875 C 19.550781 3.957031 18.953125 3.710938 18.953125 3.640625 C 18.953125 3.570312 19.339844 2.96875 19.832031 2.332031 C 21.058594 0.707031 20.953125 0.351562 19.304688 0.351562 C 17.972656 0.351562 17.902344 0.425781 17.164062 2.121094 Z M 20.324219 6.890625 C 22.957031 8.234375 23.203125 13.855469 20.78125 16.046875 C 19.832031 16.859375 17.304688 17.140625 16.144531 16.542969 C 14.671875 15.726562 13.6875 13.890625 13.6875 11.839844 C 13.6875 10.816406 13.863281 9.472656 14.074219 8.871094 C 14.847656 6.679688 18.042969 5.691406 20.324219 6.890625 Z M 20.324219 6.890625 "/>
<path style=" stroke:none;fill-rule:nonzero;fill:rgb(0%,0%,0%);fill-opacity:1;" d="M 26.113281 4.382812 C 26.007812 4.664062 25.972656 5.265625 26.042969 5.726562 C 26.148438 6.46875 26.359375 6.539062 28.359375 6.644531 L 30.539062 6.75 L 30.539062 19.121094 L 31.871094 19.015625 L 33.167969 18.910156 L 33.273438 12.832031 L 33.34375 6.75 L 35.554688 6.644531 L 37.734375 6.539062 L 37.734375 4.066406 L 32.011719 3.957031 C 27.273438 3.886719 26.289062 3.957031 26.113281 4.382812 Z M 26.113281 4.382812 "/>
<path style=" stroke:none;fill-rule:nonzero;fill:rgb(0%,0%,0%);fill-opacity:1;" d="M 39.910156 4.101562 C 39.769531 4.242188 39.664062 7.667969 39.664062 11.734375 L 39.664062 19.085938 L 42.121094 19.085938 L 42.050781 11.558594 L 41.945312 4.066406 L 41.066406 3.957031 C 40.574219 3.886719 40.050781 3.957031 39.910156 4.101562 Z M 39.910156 4.101562 "/>
<path style=" stroke:none;fill-rule:nonzero;fill:rgb(0%,0%,0%);fill-opacity:1;" d="M 48.261719 4.558594 C 45.382812 5.867188 43.980469 8.695312 44.332031 12.441406 C 44.648438 16.222656 46.824219 18.804688 50.089844 19.296875 C 53.175781 19.757812 56.371094 17.957031 57.25 15.304688 C 57.703125 13.890625 57.667969 13.855469 56.265625 13.574219 C 55.28125 13.359375 55.109375 13.464844 54.582031 14.632812 C 53.140625 17.671875 49.035156 17.707031 47.597656 14.703125 C 46.894531 13.21875 46.859375 10.285156 47.527344 8.695312 C 48.191406 7.070312 49.351562 6.363281 51.28125 6.363281 C 52.683594 6.363281 53.070312 6.539062 53.808594 7.421875 C 54.300781 7.988281 54.757812 8.625 54.828125 8.835938 C 55.003906 9.402344 57.214844 8.835938 57.214844 8.199219 C 57.214844 7.175781 55.738281 5.265625 54.371094 4.59375 C 52.683594 3.710938 50.125 3.710938 48.261719 4.558594 Z M 48.261719 4.558594 "/>
<path style=" stroke:none;fill-rule:nonzero;fill:rgb(0%,0%,0%);fill-opacity:1;" d="M 62.828125 4.664062 C 61.953125 6.714844 57.566406 18.484375 57.566406 18.769531 C 57.566406 18.945312 58.160156 19.085938 58.898438 19.085938 C 60.160156 19.085938 60.230469 19.050781 60.933594 17.035156 L 61.636719 15.023438 L 67.183594 15.023438 L 67.917969 16.964844 C 68.621094 18.875 68.691406 18.910156 70.128906 19.015625 C 70.9375 19.085938 71.605469 19.050781 71.605469 18.945312 C 71.605469 18.839844 70.339844 15.65625 68.796875 11.839844 C 67.253906 8.023438 65.988281 4.773438 65.988281 4.59375 C 65.988281 4.207031 65.074219 3.886719 64.023438 3.886719 C 63.460938 3.886719 63.039062 4.171875 62.828125 4.664062 Z M 65.25 9.898438 C 65.671875 10.957031 65.988281 11.945312 65.988281 12.089844 C 65.988281 12.265625 65.285156 12.371094 64.410156 12.371094 C 63.53125 12.371094 62.828125 12.230469 62.828125 12.050781 C 62.828125 11.628906 64.304688 7.742188 64.445312 7.847656 C 64.480469 7.917969 64.867188 8.835938 65.25 9.898438 Z M 65.25 9.898438 "/>
<path style=" stroke:none;fill-rule:nonzero;fill:rgb(0%,0%,0%);fill-opacity:1;" d="M 78.097656 8.449219 C 75.113281 10.320312 73.816406 13.078125 75.78125 13.359375 C 76.378906 13.464844 77.046875 13.078125 78.132812 11.980469 C 80.308594 9.824219 80.835938 10.109375 85.433594 15.515625 C 87.433594 17.957031 89.050781 20.039062 88.980469 20.183594 C 88.875 20.289062 88.3125 20.5 87.714844 20.640625 C 85.503906 21.066406 84.066406 22.726562 83.046875 25.941406 C 82.871094 26.402344 82.625 26.542969 82.03125 26.367188 C 81.609375 26.261719 79.78125 26.050781 77.957031 25.90625 C 75.394531 25.730469 74.484375 25.519531 73.992188 25.023438 C 72.621094 23.644531 74.519531 22.300781 77.082031 22.796875 C 78.0625 22.972656 78.449219 23.257812 78.730469 24.070312 C 79.082031 24.953125 79.292969 25.09375 80.203125 25.023438 C 81.117188 24.917969 81.257812 24.8125 81.1875 23.894531 C 81.152344 23.257812 80.660156 22.410156 80.027344 21.773438 C 79.011719 20.746094 78.835938 20.675781 76.132812 20.675781 C 73.359375 20.675781 73.289062 20.710938 72.238281 21.84375 C 71.359375 22.867188 71.21875 23.292969 71.324219 24.671875 C 71.394531 26.15625 71.324219 26.332031 70.65625 26.4375 C 70.023438 26.542969 69.816406 26.296875 69.5 25.023438 C 68.691406 22.089844 64.933594 19.722656 61.988281 20.324219 C 59.214844 20.925781 57.460938 22.65625 56.40625 25.871094 C 56.019531 27.003906 55.246094 26.542969 54.828125 24.882812 C 53.949219 21.59375 51.632812 20.394531 46.578125 20.570312 L 43.699219 20.675781 L 43.699219 34.460938 L 46.578125 34.566406 C 51.597656 34.742188 53.949219 33.507812 54.792969 30.289062 C 55.140625 29.054688 55.351562 28.769531 55.84375 28.875 C 56.195312 28.984375 56.582031 29.511719 56.6875 30.113281 C 56.96875 31.351562 58.6875 33.4375 59.988281 34.074219 C 63.496094 35.839844 68.128906 34.144531 69.324219 30.574219 L 69.78125 29.160156 L 72.480469 28.699219 C 74.832031 28.3125 75.429688 28.3125 77.082031 28.804688 C 78.589844 29.230469 79.011719 29.546875 79.1875 30.21875 C 79.46875 31.351562 78.871094 32.09375 77.394531 32.375 C 75.5 32.730469 73.746094 31.953125 73.113281 30.503906 C 72.726562 29.476562 72.480469 29.300781 71.851562 29.476562 C 71.429688 29.582031 70.972656 29.691406 70.832031 29.691406 C 70.339844 29.691406 70.550781 30.890625 71.183594 32.128906 C 72.097656 33.824219 73.746094 34.636719 76.378906 34.636719 C 79.746094 34.636719 81.960938 32.765625 81.679688 30.113281 C 81.503906 28.207031 82.625 28.628906 83.644531 30.855469 C 84.589844 32.976562 85.820312 34 87.960938 34.601562 C 91.191406 35.484375 94.59375 33.683594 95.824219 30.398438 C 96.105469 29.726562 96.527344 29.019531 96.773438 28.875 C 97.4375 28.488281 97.367188 26.507812 96.703125 26.507812 C 96.421875 26.507812 96.175781 26.261719 96.175781 25.976562 C 96.175781 24.953125 94.769531 22.65625 93.542969 21.667969 C 92.875 21.136719 92.3125 20.429688 92.3125 20.109375 C 92.3125 19.792969 90.277344 17.175781 87.785156 14.242188 C 84.242188 10.109375 82.941406 8.800781 81.820312 8.339844 C 79.957031 7.597656 79.398438 7.632812 78.097656 8.449219 Z M 64.96875 23.1875 C 67.777344 24.636719 67.707031 30.539062 64.902344 31.988281 C 61.742188 33.648438 58.511719 30.679688 59.109375 26.683594 C 59.636719 23.363281 62.304688 21.773438 64.96875 23.1875 Z M 92.382812 24 C 94.804688 26.71875 93.578125 31.773438 90.347656 32.375 C 87.644531 32.871094 85.644531 30.890625 85.644531 27.675781 C 85.644531 25.234375 86.101562 24.175781 87.46875 23.292969 C 89.085938 22.300781 91.121094 22.585938 92.382812 24 Z M 50.929688 23.328125 C 52.546875 24.210938 53.175781 27.746094 52.160156 30.21875 C 51.492188 31.773438 50.683594 32.164062 48.121094 32.164062 L 45.980469 32.164062 L 45.980469 22.972656 L 48.121094 22.972656 C 49.28125 22.972656 50.542969 23.152344 50.929688 23.328125 Z M 50.929688 23.328125 "/>
<path style=" stroke:none;fill-rule:nonzero;fill:rgb(0%,0%,0%);fill-opacity:1;" d="M 19.339844 27.074219 C 17.972656 30.679688 16.847656 33.859375 16.847656 34.144531 C 16.847656 34.53125 17.164062 34.636719 17.972656 34.566406 C 18.953125 34.460938 19.164062 34.25 19.867188 32.515625 L 20.640625 30.574219 L 22.886719 30.46875 C 25.449219 30.359375 25.554688 30.433594 26.5 32.941406 C 27.0625 34.496094 27.238281 34.636719 28.253906 34.636719 C 28.851562 34.636719 29.449219 34.53125 29.554688 34.425781 C 29.730469 34.285156 28.429688 30.925781 24.324219 20.925781 C 24.21875 20.710938 23.621094 20.5 22.992188 20.5 L 21.867188 20.5 Z M 24.394531 27.464844 C 24.605469 28.242188 24.5 28.277344 22.992188 28.277344 C 21.550781 28.277344 21.375 28.207031 21.585938 27.640625 C 21.726562 27.320312 22.078125 26.332031 22.394531 25.449219 L 22.957031 23.859375 L 23.550781 25.273438 C 23.867188 26.050781 24.253906 27.039062 24.394531 27.464844 Z M 24.394531 27.464844 "/>
<path style=" stroke:none;fill-rule:nonzero;fill:rgb(0%,0%,0%);fill-opacity:1;" d="M 30.539062 27.570312 L 30.539062 34.671875 L 31.695312 34.566406 L 32.820312 34.460938 L 32.925781 31.527344 L 33.03125 28.628906 L 34.363281 28.628906 C 35.871094 28.628906 36.75 29.40625 38.75 32.589844 C 39.910156 34.425781 40.15625 34.636719 41.242188 34.636719 C 41.875 34.636719 42.507812 34.496094 42.613281 34.320312 C 42.71875 34.179688 41.945312 32.765625 40.890625 31.246094 L 38.996094 28.453125 L 40.191406 27.464844 C 41.664062 26.226562 42.085938 24.601562 41.277344 22.902344 C 40.367188 20.996094 39.628906 20.710938 34.855469 20.570312 L 30.539062 20.429688 Z M 38.433594 23.328125 C 38.714844 23.574219 38.960938 24.140625 38.960938 24.601562 C 38.960938 25.871094 37.699219 26.507812 35.207031 26.507812 L 32.996094 26.507812 L 32.996094 24.8125 C 32.996094 23.859375 33.097656 22.972656 33.273438 22.832031 C 33.660156 22.410156 37.839844 22.832031 38.433594 23.328125 Z M 38.433594 23.328125 "/>
<path style=" stroke:none;fill-rule:nonzero;fill:rgb(0%,0%,0%);fill-opacity:1;" d="M 67.042969 34.25 C 66.445312 35.378906 66.585938 35.59375 68.867188 37.148438 C 72.832031 39.867188 75.816406 40.539062 79.011719 39.410156 C 80.484375 38.878906 85.644531 35.734375 85.644531 35.34375 C 85.644531 35.238281 85.328125 34.78125 84.976562 34.320312 L 84.347656 33.472656 L 81.328125 35.34375 C 76.695312 38.171875 74.867188 38.171875 70.410156 35.167969 C 69.148438 34.285156 67.917969 33.578125 67.742188 33.578125 C 67.566406 33.578125 67.253906 33.894531 67.042969 34.25 Z M 67.042969 34.25 "/>
</g>
</svg>
